<svg viewBox="0 0 100 100" fill="none" xmlns="http://www.w3.org/2000/svg">
  <style>
    .orbit { animation: spin 10s linear infinite reverse; transform-origin: center; }
    .inner { animation: spin 6s linear infinite; transform-origin: center; }
    .pulse { animation: pulse 2s cubic-bezier(0.4, 0, 0.6, 1) infinite; }
    @keyframes spin { 100% { transform: rotate(360deg); } }
    @keyframes pulse { 50% { opacity: .5; } }
  </style>
  
  <polygon points="50,5 90,27.5 90,72.5 50,95 10,72.5 10,27.5" stroke="#FF6A00" stroke-width="1.5" stroke-opacity="0.3" />

  <g class="orbit">
    <circle cx="50" cy="50" r="40" stroke="#FF6A00" stroke-width="1" stroke-dasharray="15 30" stroke-opacity="0.5" />
    <circle cx="50" cy="10" r="2.5" fill="#FF6A00" />
    <circle cx="50" cy="90" r="2.5" fill="#FF6A00" />
  </g>

  <g class="inner">
    <circle cx="50" cy="50" r="34" stroke="#FF6A00" stroke-width="2" stroke-dasharray="60 40" stroke-opacity="0.8" />
    <path d="M 50 16 L 47 10 L 53 10 Z" fill="#FF6A00" />
    <path d="M 50 84 L 47 90 L 53 90 Z" fill="#FF6A00" />
  </g>

  <g class="pulse">
    <polygon points="50,25 25,50 50,50" fill="#FF6A00" fill-opacity="0.4" stroke="#FF6A00" stroke-width="1" />
    <polygon points="50,25 75,50 50,50" fill="#FF6A00" fill-opacity="0.8" stroke="#FF6A00" stroke-width="1" />
    <polygon points="50,75 25,50 50,50" fill="#FF6A00" fill-opacity="0.6" stroke="#FF6A00" stroke-width="1" />
    <polygon points="50,75 75,50 50,50" fill="#FF6A00" fill-opacity="0.2" stroke="#FF6A00" stroke-width="1" />
    <circle cx="50" cy="50" r="3" fill="#FFF" />
  </g>

  <line x1="2" y1="50" x2="18" y2="50" stroke="#FF6A00" stroke-width="1.5" stroke-opacity="0.6" />
  <line x1="82" y1="50" x2="98" y2="50" stroke="#FF6A00" stroke-width="1.5" stroke-opacity="0.6" />
  <line x1="50" y1="2" x2="50" y2="18" stroke="#FF6A00" stroke-width="1.5" stroke-opacity="0.6" />
  <line x1="50" y1="82" x2="50" y2="98" stroke="#FF6A00" stroke-width="1.5" stroke-opacity="0.6" />
</svg>
